<?xml version="1.0" encoding="UTF-8"?>
<svg width="171px" height="32px" viewBox="0 0 171 32" version="1.1" xmlns="http://www.w3.org/2000/svg" xmlns:xlink="http://www.w3.org/1999/xlink">
    <title>crossover</title>
    <g id="Page-1" stroke="none" stroke-width="1" fill="none" fill-rule="evenodd">
        <g id="Welcome" transform="translate(-102.000000, -180.000000)" fill-rule="nonzero">
            <g id="crossover" transform="translate(102.500000, 180.000000)">
                <path d="M32.582996,0 L15.8445344,0 C7.09311741,0 0,7.16048583 0,15.9935223 C0,24.8265587 7.09311741,31.9870445 15.8445344,31.9870445 L32.582996,31.9870445 C41.3331174,31.9870445 48.4249393,24.8265587 48.4249393,15.9935223 C48.4249393,7.16048583 41.3279352,0 32.582996,0 M32.582996,28.228664 C25.8889069,28.228664 20.4605668,22.7510931 20.4605668,15.9935223 C20.4605668,9.23595142 25.8824291,3.75708502 32.5765182,3.75708502 C39.2706073,3.75708502 44.6963563,9.23595142 44.6963563,15.9935223 C44.6963563,22.7510931 39.2693117,28.228664 32.5765182,28.228664" id="Shape" fill="#EAA849"></path>
                <path d="M56.388664,15.9805668 C56.388664,12.0939271 59.1974089,9.07789474 63.1604858,9.07789474 C66.100081,9.07789474 68.2778947,10.7621053 69.065587,13.1990283 L66.2024291,14.1693927 C65.7308502,12.8310931 64.6477733,11.9902834 63.1578947,11.9902834 C61.0319028,11.9902834 59.5303644,13.6174899 59.5303644,15.9792713 C59.5303644,18.3410526 61.0267206,19.9954656 63.1578947,19.9954656 C64.5752227,19.9954656 65.6505263,19.2349798 66.1234008,17.9225911 L68.9839676,18.894251 C68.091336,21.3091498 65.9912551,22.9104453 63.1540081,22.9104453 C59.1909312,22.9104453 56.3821862,19.8918219 56.3821862,15.9805668" id="Path" fill="#21201E"></path>
                <path d="M70.957085,9.44582996 L73.5559514,9.44582996 L74.0016194,10.9680972 C74.6804886,9.7855641 75.9456941,9.06251875 77.3091498,9.07789474 C78.3585425,9.07789474 79.1462348,9.39271255 79.5659919,9.70753036 L78.4362753,12.4631579 C78.177166,12.2532794 77.6226721,12.0174899 76.8608907,12.0174899 C75.3386235,12.0174899 74.1052632,13.2249393 74.1052632,15.4040486 L74.1052632,22.5425101 L70.957085,22.5425101 L70.957085,9.44582996 Z" id="Path" fill="#21201E"></path>
                <path d="M79.5841296,15.9805668 C79.5841296,12.1224291 82.4719028,9.07789474 86.3818623,9.07789474 C90.3190283,9.07789474 93.2055061,12.1224291 93.2055061,15.9805668 C93.2055061,19.8672065 90.3190283,22.9104453 86.3818623,22.9104453 C82.4187854,22.9104453 79.5841296,19.8659109 79.5841296,15.9805668 M90.0560324,15.9805668 C90.0560324,13.6706073 88.4819433,11.9915789 86.3818623,11.9915789 C84.2558704,11.9915789 82.7336032,13.6757895 82.7336032,15.9805668 C82.7336032,18.3125506 84.2558704,19.9967611 86.3818623,19.9967611 C88.4819433,19.9967611 90.0560324,18.3125506 90.0560324,15.9805668" id="Shape" fill="#21201E"></path>
                <path d="M94.4453441,18.9991903 L97.2281781,18.1065587 C97.542996,19.2608907 98.225749,20.2843725 99.9047773,20.2843725 C101.322105,20.2843725 102.236761,19.7337652 102.236761,18.7880162 C102.236761,18.1324696 101.817004,17.5805668 99.8218623,17.2333603 C97.0921457,16.7345749 94.8080972,15.8950607 94.8080972,13.1653441 C94.8080972,10.908502 96.7242105,9.07012146 99.8995951,9.07012146 C102.524372,9.07012146 104.335547,10.4615385 104.886154,12.8272065 L102.130526,13.6148988 C101.894737,12.6691498 101.342834,11.6987854 99.8995951,11.6987854 C98.4032389,11.6987854 97.7476923,12.3556275 97.7476923,13.037085 C97.7476923,13.9297166 98.6921457,14.2445344 100.37247,14.5593522 C103.286154,15.0840486 105.202267,16.1140081 105.202267,18.7323077 C105.202267,21.0642915 103.129393,22.9052768 99.9008907,22.9052768 C97.0364372,22.9104453 95.0931174,21.44 94.4453441,18.9991903" id="Path" fill="#21201E"></path>
                <path d="M106.510769,18.9991903 L109.292308,18.1065587 C109.607126,19.2608907 110.289879,20.2843725 111.970202,20.2843725 C113.38753,20.2843725 114.302186,19.7337652 114.302186,18.7880162 C114.302186,18.1324696 113.882429,17.5805668 111.887287,17.2333603 C109.157571,16.7345749 106.874818,15.8950607 106.874818,13.1653441 C106.874818,10.908502 108.790931,9.07012146 111.966316,9.07012146 C114.591093,9.07012146 116.402267,10.4615385 116.952874,12.8272065 L114.197247,13.6148988 C113.961457,12.6691498 113.409555,11.6987854 111.966316,11.6987854 C110.46996,11.6987854 109.814413,12.3556275 109.814413,13.037085 C109.814413,13.9297166 110.758866,14.2445344 112.43919,14.5593522 C115.352874,15.0840486 117.268988,16.1140081 117.268988,18.7323077 C117.268988,21.0642915 115.196113,22.9052632 111.966316,22.9052632 C109.105749,22.9052632 107.162429,21.4348178 106.506883,18.9940081" id="Path" fill="#21201E"></path>
                <path d="M118.582672,15.9805668 C118.582672,12.1224291 121.46915,9.07789474 125.380405,9.07789474 C129.317571,9.07789474 132.204049,12.1224291 132.204049,15.9805668 C132.204049,19.8672065 129.317571,22.9104453 125.380405,22.9104453 C121.417328,22.9104453 118.582672,19.8659109 118.582672,15.9805668 M129.054575,15.9805668 C129.054575,13.6706073 127.480486,11.9915789 125.380405,11.9915789 C123.254413,11.9915789 121.732146,13.6757895 121.732146,15.9805668 C121.732146,18.3125506 123.254413,19.9967611 125.380405,19.9967611 C127.480486,19.9967611 129.054575,18.3125506 129.054575,15.9805668" id="Shape" fill="#21201E"></path>
                <polygon id="Path" fill="#21201E" points="145.518381 9.44582996 140.557733 22.5425101 137.251498 22.5425101 132.29085 9.44582996 135.519352 9.44582996 138.904615 18.9732794 142.291174 9.44582996"></polygon>
                <path d="M148.698947,17.0299595 C148.873121,18.8993469 150.449047,20.3244341 152.326478,20.3102834 C154.163563,20.3102834 155.214251,19.2077733 155.529069,18.3151417 L158.179757,19.1287449 C157.419271,21.2288259 155.529069,22.9078543 152.326478,22.9078543 C148.569393,22.9078543 145.686802,20.020081 145.686802,15.9779757 C145.686802,12.0148988 148.573279,9.07530364 152.300567,9.07530364 C156.106883,9.07530364 158.494575,11.8309312 158.494575,15.8212146 L158.494575,17.028664 L148.698947,17.0299595 Z M152.326478,11.6754656 C150.200486,11.6754656 149.020243,13.1187045 148.731336,14.6150607 L155.713036,14.6150607 C155.634008,13.4335223 154.584615,11.6754656 152.327773,11.6754656" id="Shape" fill="#21201E"></path>
                <path d="M160.484534,9.44582996 L163.083401,9.44582996 L163.530364,10.9680972 C164.209234,9.7855641 165.474439,9.06251875 166.837895,9.07789474 C167.887287,9.07789474 168.67498,9.39271255 169.094737,9.70753036 L167.966316,12.4631579 C167.707206,12.2532794 167.152713,12.0174899 166.392227,12.0174899 C164.86996,12.0174899 163.635304,13.2249393 163.635304,15.4040486 L163.635304,22.5425101 L160.48583,22.5425101 L160.484534,9.44582996 Z" id="Path" fill="#21201E"></path>
            </g>
        </g>
    </g>
</svg>