<?xml version="1.0" encoding="UTF-8"?>
<svg width="2846px" height="434px" viewBox="0 0 2846 434" version="1.1" xmlns="http://www.w3.org/2000/svg" xmlns:xlink="http://www.w3.org/1999/xlink">
    <title>Inverted</title>
    <defs>
        <path d="M1178.1,321.3 L1178.1,191.25 L1306.875,191.25 L1306.875,321.3 L1373.175,321.3 L1373.175,20.4 L1306.875,20.4 L1306.875,132.6 L1178.1,132.6 L1178.1,20.4 L1111.8,20.4 L1111.8,321.3 L1178.1,321.3 Z M1534.675,326.4 C1551.39167,326.4 1567.54167,322.858333 1583.125,315.775 C1598.70833,308.691667 1611.6,298.633333 1621.8,285.6 L1621.8,285.6 L1577.175,252.875 C1571.79167,260.241667 1565.4875,266.2625 1558.2625,270.9375 C1551.0375,275.6125 1542.18333,277.95 1531.7,277.95 C1519.23333,277.95 1508.75,274.3375 1500.25,267.1125 C1491.75,259.8875 1486.225,250.183333 1483.675,238 L1483.675,238 L1631.575,238 L1631.575,218.025 C1631.575,201.591667 1629.30833,186.716667 1624.775,173.4 C1620.24167,160.083333 1613.79583,148.679167 1605.4375,139.1875 C1597.07917,129.695833 1586.87917,122.4 1574.8375,117.3 C1562.79583,112.2 1549.40833,109.65 1534.675,109.65 C1518.80833,109.65 1503.8625,112.2 1489.8375,117.3 C1475.8125,122.4 1463.62917,129.695833 1453.2875,139.1875 C1442.94583,148.679167 1434.8,160.083333 1428.85,173.4 C1422.9,186.716667 1419.925,201.591667 1419.925,218.025 C1419.925,234.458333 1422.9,249.333333 1428.85,262.65 C1434.8,275.966667 1442.94583,287.370833 1453.2875,296.8625 C1463.62917,306.354167 1475.8125,313.65 1489.8375,318.75 C1503.8625,323.85 1518.80833,326.4 1534.675,326.4 Z M1567.825,194.65 L1483.675,194.65 C1483.95833,189.55 1485.1625,184.6625 1487.2875,179.9875 C1489.4125,175.3125 1492.3875,171.204167 1496.2125,167.6625 C1500.0375,164.120833 1504.64167,161.216667 1510.025,158.95 C1515.40833,156.683333 1521.64167,155.55 1528.725,155.55 C1540.34167,155.55 1549.83333,159.375 1557.2,167.025 C1564.56667,174.675 1568.10833,183.883333 1567.825,194.65 L1567.825,194.65 Z M1733.575,326.4 C1746.60833,326.4 1759.00417,323.991667 1770.7625,319.175 C1782.52083,314.358333 1791.94167,306.425 1799.025,295.375 L1799.025,295.375 L1799.875,295.375 L1799.875,321.3 L1858.525,321.3 L1858.525,216.325 C1858.525,199.041667 1857.10833,183.8125 1854.275,170.6375 C1851.44167,157.4625 1846.4125,146.341667 1839.1875,137.275 C1831.9625,128.208333 1822.32917,121.3375 1810.2875,116.6625 C1798.24583,111.9875 1782.875,109.65 1764.175,109.65 C1747.175,109.65 1730.74167,112.4125 1714.875,117.9375 C1699.00833,123.4625 1685.125,131.75 1673.225,142.8 L1673.225,142.8 L1707.225,177.65 C1714.025,170 1721.74583,163.979167 1730.3875,159.5875 C1739.02917,155.195833 1748.59167,153 1759.075,153 C1770.125,153 1779.6875,156.329167 1787.7625,162.9875 C1795.8375,169.645833 1799.875,178.641667 1799.875,189.975 C1791.09167,189.975 1781.52917,190.116667 1771.1875,190.4 C1760.84583,190.683333 1750.50417,191.533333 1740.1625,192.95 C1729.82083,194.366667 1719.83333,196.5625 1710.2,199.5375 C1700.56667,202.5125 1691.99583,206.691667 1684.4875,212.075 C1676.97917,217.458333 1671.02917,224.258333 1666.6375,232.475 C1662.24583,240.691667 1660.05,250.75 1660.05,262.65 C1660.05,273.133333 1662.03333,282.341667 1666,290.275 C1669.96667,298.208333 1675.35,304.866667 1682.15,310.25 C1688.95,315.633333 1696.8125,319.670833 1705.7375,322.3625 C1714.6625,325.054167 1723.94167,326.4 1733.575,326.4 Z M1751.425,283.05 C1744.34167,283.05 1737.54167,281.208333 1731.025,277.525 C1724.50833,273.841667 1721.25,268.175 1721.25,260.525 C1721.25,253.441667 1723.5875,247.916667 1728.2625,243.95 C1732.9375,239.983333 1738.60417,237.008333 1745.2625,235.025 C1751.92083,233.041667 1758.8625,231.8375 1766.0875,231.4125 C1773.3125,230.9875 1779.33333,230.775 1784.15,230.775 L1799.875,230.775 L1799.875,244.375 C1799.875,250.891667 1798.52917,256.558333 1795.8375,261.375 C1793.14583,266.191667 1789.53333,270.158333 1785,273.275 C1780.46667,276.391667 1775.29583,278.8 1769.4875,280.5 C1763.67917,282.2 1757.65833,283.05 1751.425,283.05 Z M1963.075,321.3 L1963.075,5.68434189e-14 L1899.325,5.68434189e-14 L1899.325,321.3 L1963.075,321.3 Z M2105.025,326.4 C2112.39167,326.4 2119.9,325.975 2127.55,325.125 C2135.2,324.275 2142.56667,322.575 2149.65,320.025 L2149.65,320.025 L2149.65,266.9 C2146.81667,269.45 2142.6375,271.079167 2137.1125,271.7875 C2131.5875,272.495833 2127.125,272.85 2123.725,272.85 C2116.925,272.85 2111.47083,271.929167 2107.3625,270.0875 C2103.25417,268.245833 2100.20833,265.625 2098.225,262.225 C2096.24167,258.825 2094.96667,254.7875 2094.4,250.1125 C2093.83333,245.4375 2093.55,240.266667 2093.55,234.6 L2093.55,234.6 L2093.55,165.75 L2149.65,165.75 L2149.65,114.75 L2093.55,114.75 L2093.55,53.55 L2029.8,53.55 L2029.8,114.75 L1989,114.75 L1989,165.75 L2029.8,165.75 L2029.8,263.925 C2029.8,275.258333 2031.7125,284.891667 2035.5375,292.825 C2039.3625,300.758333 2044.675,307.204167 2051.475,312.1625 C2058.275,317.120833 2066.20833,320.733333 2075.275,323 C2084.34167,325.266667 2094.25833,326.4 2105.025,326.4 Z M2245.7,321.3 L2245.7,218.45 C2245.7,211.65 2246.125,205.133333 2246.975,198.9 C2247.825,192.666667 2249.59583,187.070833 2252.2875,182.1125 C2254.97917,177.154167 2258.875,173.1875 2263.975,170.2125 C2269.075,167.2375 2275.73333,165.75 2283.95,165.75 C2292.16667,165.75 2298.47083,167.45 2302.8625,170.85 C2307.25417,174.25 2310.5125,178.641667 2312.6375,184.025 C2314.7625,189.408333 2316.0375,195.2875 2316.4625,201.6625 C2316.8875,208.0375 2317.1,214.2 2317.1,220.15 L2317.1,220.15 L2317.1,321.3 L2380.85,321.3 L2380.85,207.4 C2380.85,193.516667 2379.85833,180.625 2377.875,168.725 C2375.89167,156.825 2372.1375,146.483333 2366.6125,137.7 C2361.0875,128.916667 2353.36667,122.045833 2343.45,117.0875 C2333.53333,112.129167 2320.5,109.65 2304.35,109.65 C2296.7,109.65 2289.61667,110.641667 2283.1,112.625 C2276.58333,114.608333 2270.91667,117.158333 2266.1,120.275 C2261.28333,123.391667 2257.175,126.933333 2253.775,130.9 C2250.375,134.866667 2247.96667,138.833333 2246.55,142.8 L2246.55,142.8 L2245.7,142.8 L2245.7,5.68434189e-14 L2181.95,5.68434189e-14 L2181.95,321.3 L2245.7,321.3 Z" id="path-1"></path>
        <path d="M152.15,321.3 L152.15,79.05 L238,79.05 L238,20.4 L0,20.4 L0,79.05 L85.85,79.05 L85.85,321.3 L152.15,321.3 Z M288.15,321.3 L288.15,235.025 C288.15,224.825 288.716667,215.475 289.85,206.975 C290.983333,198.475 293.4625,191.179167 297.2875,185.0875 C301.1125,178.995833 306.566667,174.25 313.65,170.85 C320.733333,167.45 330.366667,165.75 342.55,165.75 C347.366667,165.75 351.970833,166.104167 356.3625,166.8125 C360.754167,167.520833 365.216667,168.583333 369.75,170 L369.75,170 L369.75,111.775 C366.633333,110.925 363.233333,110.358333 359.55,110.075 C355.866667,109.791667 352.183333,109.65 348.5,109.65 C334.333333,109.65 322.575,112.8375 313.225,119.2125 C303.875,125.5875 295.8,135.15 289,147.9 L289,147.9 L288.15,147.9 L288.15,114.75 L224.4,114.75 L224.4,321.3 L288.15,321.3 Z M473.875,326.4 C481.525,326.4 488.608333,325.408333 495.125,323.425 C501.641667,321.441667 507.45,318.891667 512.55,315.775 C517.65,312.658333 521.970833,309.116667 525.5125,305.15 C529.054167,301.183333 531.958333,297.216667 534.225,293.25 L534.225,293.25 L535.075,293.25 L535.075,321.3 L596.275,321.3 L596.275,114.75 L532.525,114.75 L532.525,217.6 C532.525,224.4 532.1,230.916667 531.25,237.15 C530.4,243.383333 528.629167,248.979167 525.9375,253.9375 C523.245833,258.895833 519.35,262.8625 514.25,265.8375 C509.15,268.8125 502.491667,270.3 494.275,270.3 C486.058333,270.3 479.754167,268.6 475.3625,265.2 C470.970833,261.8 467.7125,257.408333 465.5875,252.025 C463.4625,246.641667 462.1875,240.7625 461.7625,234.3875 C461.3375,228.0125 461.125,221.85 461.125,215.9 L461.125,215.9 L461.125,114.75 L397.375,114.75 L397.375,228.65 C397.375,242.533333 398.295833,255.425 400.1375,267.325 C401.979167,279.225 405.6625,289.566667 411.1875,298.35 C416.7125,307.133333 424.504167,314.004167 434.5625,318.9625 C444.620833,323.920833 457.725,326.4 473.875,326.4 Z M710.175,326.4 C721.225,326.4 732.416667,325.3375 743.75,323.2125 C755.083333,321.0875 765.283333,317.404167 774.35,312.1625 C783.416667,306.920833 790.854167,299.979167 796.6625,291.3375 C802.470833,282.695833 805.375,271.716667 805.375,258.4 C805.375,245.366667 802.754167,234.954167 797.5125,227.1625 C792.270833,219.370833 785.6125,213.208333 777.5375,208.675 C769.4625,204.141667 760.820833,200.8125 751.6125,198.6875 C742.404167,196.5625 733.7625,194.579167 725.6875,192.7375 C717.6125,190.895833 710.954167,188.770833 705.7125,186.3625 C700.470833,183.954167 697.85,180.2 697.85,175.1 C697.85,168.866667 700.4,164.475 705.5,161.925 C710.6,159.375 715.841667,158.1 721.225,158.1 C736.525,158.1 748.85,163.908333 758.2,175.525 L758.2,175.525 L797.3,136.85 C787.666667,126.65 775.908333,119.566667 762.025,115.6 C748.141667,111.633333 734.4,109.65 720.8,109.65 C710.033333,109.65 699.408333,110.995833 688.925,113.6875 C678.441667,116.379167 669.1625,120.558333 661.0875,126.225 C653.0125,131.891667 646.495833,139.116667 641.5375,147.9 C636.579167,156.683333 634.1,167.166667 634.1,179.35 C634.1,192.383333 636.720833,202.795833 641.9625,210.5875 C647.204167,218.379167 653.8625,224.4 661.9375,228.65 C670.0125,232.9 678.654167,236.0875 687.8625,238.2125 C697.070833,240.3375 705.7125,242.320833 713.7875,244.1625 C721.8625,246.004167 728.520833,248.270833 733.7625,250.9625 C739.004167,253.654167 741.625,257.691667 741.625,263.075 C741.625,268.741667 738.65,272.6375 732.7,274.7625 C726.75,276.8875 720.091667,277.95 712.725,277.95 C703.091667,277.95 694.6625,276.0375 687.4375,272.2125 C680.2125,268.3875 673.625,262.791667 667.675,255.425 L667.675,255.425 L629,298.35 C639.2,308.833333 651.666667,316.129167 666.4,320.2375 C681.133333,324.345833 695.725,326.4 710.175,326.4 Z M934.15,326.4 C941.516667,326.4 949.025,325.975 956.675,325.125 C964.325,324.275 971.691667,322.575 978.775,320.025 L978.775,320.025 L978.775,266.9 C975.941667,269.45 971.7625,271.079167 966.2375,271.7875 C960.7125,272.495833 956.25,272.85 952.85,272.85 C946.05,272.85 940.595833,271.929167 936.4875,270.0875 C932.379167,268.245833 929.333333,265.625 927.35,262.225 C925.366667,258.825 924.091667,254.7875 923.525,250.1125 C922.958333,245.4375 922.675,240.266667 922.675,234.6 L922.675,234.6 L922.675,165.75 L978.775,165.75 L978.775,114.75 L922.675,114.75 L922.675,53.55 L858.925,53.55 L858.925,114.75 L818.125,114.75 L818.125,165.75 L858.925,165.75 L858.925,263.925 C858.925,275.258333 860.8375,284.891667 864.6625,292.825 C868.4875,300.758333 873.8,307.204167 880.6,312.1625 C887.4,317.120833 895.333333,320.733333 904.4,323 C913.466667,325.266667 923.383333,326.4 934.15,326.4 Z" id="path-2"></path>
    </defs>
    <g id="Logo" stroke="none" stroke-width="1" fill="none" fill-rule="evenodd">
        <g id="Inverted" transform="translate(-112.000000, -135.000000)" fill="#FFFFFF" fill-rule="nonzero">
            <g id="Icon" transform="translate(113.510227, 135.379471)">
                <path d="M168.099806,0 L337.34581,68.6280502 L337.34581,257.822928 L336.832211,260.266708 C327.880521,302.362889 313.889562,335.080654 294.610471,358.356207 C275.673401,381.218838 251.014037,399.224465 222.946532,412.973372 C220.946497,413.953092 218.95125,414.900347 216.96554,415.814985 L216.96554,415.814985 L214.983185,416.718746 L213.008243,417.600729 L211.041769,418.460902 C204.829126,421.150212 198.75974,423.510945 192.984419,425.53832 L192.984419,425.53832 L191.170584,426.167457 C189.667494,426.682495 188.185868,427.174411 186.728454,427.64312 L186.728454,427.64312 L184.991354,428.194426 L183.278554,428.723418 L181.591109,429.230065 C179.637623,429.808103 177.738057,430.34045 175.899953,430.826866 L175.899953,430.826866 L174.339662,431.232539 C174.082181,431.298275 173.825998,431.363072 173.571136,431.426929 L173.571136,431.426929 L172.05798,431.798795 L171.313614,431.976262 C169.742715,432.346886 167.898394,432.393818 165.693814,432.146921 L165.693814,432.146921 L165.021545,432.064067 C164.67992,432.018263 164.329993,431.965914 163.971473,431.907122 L163.971473,431.907122 L163.242886,431.780978 L162.490859,431.637831 L161.714873,431.477861 C161.583516,431.449807 161.451139,431.42106 161.317731,431.391623 L161.317731,431.391623 L160.504827,431.206753 C160.367253,431.174572 160.228625,431.141708 160.088934,431.108166 L160.088934,431.108166 L159.237941,430.898801 L158.360903,430.673329 L157.4573,430.431929 L156.52661,430.174781 L155.078649,429.759923 L154.077964,429.464189 L152.522567,428.992291 L150.900364,428.486974 L149.316578,427.982136 C139.676453,424.868327 128.75185,420.570473 117.715281,415.385685 C86.915465,400.916465 59.5573941,381.856318 39.7832582,358.440117 C18.438367,333.163854 5.26377322,299.618128 0.0881316565,258.053421 L0.0881316565,258.053421 L0,257.345651 L0,68.6487437 L168.099806,0 Z M189.717046,154.690787 L147.117046,154.690787 L147.117046,208.690787 L92.8170456,208.690787 L92.8170456,250.090787 L147.117046,250.090787 L147.117046,304.090787 L189.717046,304.090787 L189.717046,250.090787 L244.017046,250.090787 L244.017046,208.690787 L189.717046,208.690787 L189.717046,154.690787 Z" id="Combined-Shape"></path>
            </g>
            <g id="Text" transform="translate(577.139773, 171.616190)">
                <g id="Health">
                    <use xlink:href="#path-1"></use>
                    <use xlink:href="#path-1"></use>
                </g>
                <g id="Trust">
                    <use xlink:href="#path-2"></use>
                    <use xlink:href="#path-2"></use>
                </g>
            </g>
        </g>
    </g>
</svg>