<svg width="420" height="420" viewBox="0 0 420 420" fill="none" xmlns="http://www.w3.org/2000/svg">
<circle cx="210" cy="210" r="210" fill="white"/>
<path d="M114.5 263C79.772 263 45.7872 275.051 34.271 283.579C33.4994 284.151 34.012 285.229 34.9656 285.117C73.1916 280.629 115.309 292.74 146.5 304C178.5 315.552 221 336 269 336C314.651 336 372.074 310.499 386.401 293.944C387.038 293.208 386.301 292.353 385.435 292.799C376.614 297.341 364.243 306.018 316.073 306.948C265.273 307.928 159 263 114.5 263Z" fill="#0389FF"/>
<path d="M223.46 84C239.53 84 253.592 86.9253 265.645 92.7754C277.697 98.6254 287.071 107.048 293.767 118.043C300.462 129.038 303.811 142.219 303.811 157.584C303.811 173.09 300.357 186.165 293.449 196.808C287.068 206.742 278.259 214.402 267.026 219.792L309.603 297.958C297.885 297.851 283.094 295.413 266.52 291.62C257.58 289.574 248.214 287.157 238.645 284.547L209.127 229.054H188.782V270.333C176.996 266.968 165.515 263.788 154.823 261.15C146.038 258.984 137.665 257.152 130 255.885V84H223.46ZM188.782 183.381H209.505C216.412 183.381 222.297 182.535 227.16 180.844C232.094 179.082 235.865 176.297 238.473 172.491C241.151 168.685 242.49 163.716 242.49 157.584C242.49 151.382 241.151 146.342 238.473 142.466C235.865 138.519 232.094 135.628 227.16 133.796C222.297 131.893 216.412 130.941 209.505 130.941H188.782V183.381Z" fill="#BB0000"/>
</svg>
