<svg width="357" height="234" viewBox="0 0 357 234" fill="none" xmlns="http://www.w3.org/2000/svg">
<path d="M302.396 49.5703C310.195 49.5703 317.611 51.6483 324.641 55.8047C331.722 59.9612 337.47 66.5048 341.883 75.4336C346.347 84.3623 348.579 95.9593 348.579 110.225C348.579 123.874 346.45 135.19 342.19 144.17C337.983 153.15 332.338 159.847 325.257 164.26C318.227 168.673 310.504 170.879 302.088 170.879C296.546 170.879 291.594 169.981 287.232 168.186C282.922 166.338 279.227 163.849 276.148 160.719C273.121 157.537 270.786 153.945 269.144 149.942H268.527V198.565C259.54 197.52 249.415 195.614 238.52 193.12C234.441 192.187 230.274 191.174 226.039 190.103V51.1094H268.22V71.7383H269.144C270.683 67.7358 272.941 64.0669 275.917 60.7314C278.893 57.3447 282.588 54.6507 287.001 52.6494C291.414 50.5968 296.546 49.5703 302.396 49.5703ZM204.391 167.947H204.403V184.326C197.095 182.292 189.699 180.171 182.311 178.038C175.474 176.064 168.642 174.081 161.904 172.154V169.34H161.901V51.1094H204.391V167.947ZM84.5439 11.7002C96.2438 11.7002 106.481 13.8297 115.256 18.0889C124.031 22.348 130.856 28.4802 135.73 36.4854C140.605 44.4904 143.043 54.086 143.043 65.2725C143.043 76.5618 140.529 86.0815 135.5 93.8301C130.854 101.063 124.441 106.639 116.263 110.563L147.617 168.128C140.458 166.149 133.487 164.294 126.823 162.65C115.23 159.791 104.355 157.514 94.877 156.35L74.1094 117.307H59.2969V157.123C49.6766 158.432 40.5188 160.438 32.3076 162.784C26.5923 164.417 21.2597 166.237 16.5 168.135V11.7002H84.5439ZM34.2012 167.444C34.3661 167.398 34.5316 167.352 34.6973 167.306C34.5316 167.352 34.3661 167.398 34.2012 167.444ZM36.1992 166.892C36.263 166.874 36.3268 166.857 36.3906 166.84C36.5912 166.786 36.7926 166.733 36.9941 166.68C36.7284 166.75 36.4632 166.82 36.1992 166.892ZM37.584 166.522C38.1077 166.385 38.6347 166.249 39.165 166.115C38.6347 166.249 38.1077 166.385 37.584 166.522ZM286.386 82.207C282.486 82.207 279.124 83.3359 276.302 85.5938C273.531 87.8003 271.375 91.0072 269.836 95.2148C268.348 99.3713 267.605 104.375 267.604 110.225C267.604 115.972 268.348 120.949 269.836 125.157C271.375 129.314 273.531 132.547 276.302 134.856C279.124 137.114 282.486 138.243 286.386 138.243C290.286 138.243 293.595 137.139 296.314 134.933C299.085 132.675 301.19 129.468 302.627 125.312C304.115 121.104 304.858 116.075 304.858 110.225C304.858 104.375 304.115 99.3713 302.627 95.2148C301.19 91.0071 299.085 87.8003 296.314 85.5938C293.595 83.336 290.285 82.2071 286.386 82.207ZM59.2969 84.0537H74.3838C79.4125 84.0537 83.6976 83.4386 87.2383 82.207C90.8301 80.9242 93.575 78.8968 95.4736 76.126C97.4236 73.355 98.3994 69.7369 98.3994 65.2725C98.3994 60.7569 97.4236 57.0879 95.4736 54.2656C93.5751 51.3922 90.8301 49.2883 87.2383 47.9541C83.6976 46.5686 79.4125 45.876 74.3838 45.876H59.2969V84.0537ZM183.146 0C188.944 0 193.871 1.89897 197.925 5.69629C202.03 9.49356 204.082 14.0608 204.082 19.3975C204.082 24.7341 202.03 29.3014 197.925 33.0986C193.871 36.8959 188.944 38.7939 183.146 38.7939C177.398 38.7939 172.472 36.8957 168.367 33.0986C164.262 29.3014 162.209 24.7341 162.209 19.3975C162.209 14.0607 164.262 9.4936 168.367 5.69629C172.472 1.89904 177.398 6.95587e-05 183.146 0Z" fill="#BB0000"/>
<path d="M82.5 160.5C47.772 160.5 13.7872 172.551 2.27096 181.079C1.49941 181.651 2.01201 182.729 2.96556 182.617C41.1916 178.129 83.3088 190.24 114.5 201.5C146.5 213.052 189 233.5 237 233.5C282.651 233.5 340.074 207.999 354.401 191.444C355.038 190.708 354.301 189.853 353.435 190.299C344.614 194.841 332.243 203.518 284.073 204.448C233.273 205.428 127 160.5 82.5 160.5Z" fill="#0389FF"/>
</svg>
